<?xml version="1.0" standalone="no"?>
<!DOCTYPE svg PUBLIC "-//W3C//DTD SVG 20010904//EN"
 "http://www.w3.org/TR/2001/REC-SVG-20010904/DTD/svg10.dtd">
<svg version="1.0" xmlns="http://www.w3.org/2000/svg"
 width="182.000000pt" height="182.000000pt" viewBox="0 0 182.000000 182.000000"
 preserveAspectRatio="xMidYMid meet">

<g transform="translate(0.000000,182.000000) scale(0.100000,-0.100000)"
fill="#000000" stroke="none">
<path d="M283 1560 c-17 -10 -37 -28 -42 -39 -7 -13 -11 -196 -11 -556 l0
-535 -25 -10 c-23 -9 -25 -15 -25 -71 0 -54 3 -64 29 -90 l30 -29 690 2 690 3
23 23 c19 19 23 33 23 90 0 62 -2 67 -22 70 l-23 3 0 543 c0 532 0 544 -20
569 -12 15 -38 31 -58 37 -23 6 -255 10 -632 10 -572 0 -596 -1 -627 -20z
m1268 -40 c18 -10 19 -27 19 -555 l0 -545 -216 0 c-216 0 -216 0 -246 -25 -29
-24 -34 -25 -183 -25 -149 0 -154 1 -183 25 -30 25 -30 25 -245 25 l-216 0 -3
533 c-3 421 -1 537 10 555 l12 22 616 0 c405 0 622 -4 635 -10z m-828 -1176
c28 -23 33 -24 202 -24 170 0 174 0 203 25 l30 25 231 0 231 0 0 -33 c0 -18
-5 -38 -12 -45 -9 -9 -175 -12 -684 -12 -598 0 -674 2 -688 16 -14 14 -22 64
-12 75 2 2 109 2 237 1 229 -4 234 -4 262 -28z"/>
<path d="M354 1436 l-35 -35 3 -411 3 -412 28 -24 28 -24 540 0 c529 0 539 0
559 20 12 12 25 32 30 46 6 15 10 187 10 406 0 413 -2 432 -56 457 -18 8 -179
11 -550 11 l-526 0 -34 -34z m566 -496 l0 -150 -205 0 -205 0 0 150 0 150 205
0 205 0 0 -150z m358 74 c52 -62 53 -65 42 -99 -6 -19 -16 -37 -21 -40 -5 -4
-9 -22 -9 -41 0 -31 -3 -35 -22 -32 -20 3 -23 10 -26 51 -3 42 -5 47 -28 47
-22 0 -24 -4 -24 -50 0 -43 -3 -50 -20 -50 -13 0 -20 7 -20 19 0 10 -11 43
-24 72 -20 42 -22 56 -13 69 23 32 102 120 107 119 3 0 29 -29 58 -65z m40
-286 c3 -15 -7 -18 -75 -20 l-78 -3 0 -30 0 -30 83 -3 82 -3 0 -29 0 -30 -114
0 -114 0 5 68 c8 103 8 103 116 100 77 -3 92 -6 95 -20z"/>
<path d="M610 1034 c-22 -58 -7 -184 23 -184 17 0 186 75 199 88 21 21 -1 39
-98 80 -55 23 -102 42 -107 42 -4 0 -12 -12 -17 -26z m99 -67 l31 -13 -35 -17
c-46 -22 -45 -22 -45 13 0 34 5 35 49 17z"/>
<path d="M1200 980 c0 -13 7 -20 20 -20 13 0 20 7 20 20 0 13 -7 20 -20 20
-13 0 -20 -7 -20 -20z"/>
<path d="M900 449 c0 -25 33 -22 38 4 2 12 -3 17 -17 17 -15 0 -21 -6 -21 -21z"/>
</g>
</svg>
