<?xml version="1.0" standalone="no"?>
<!DOCTYPE svg PUBLIC "-//W3C//DTD SVG 20010904//EN"
 "http://www.w3.org/TR/2001/REC-SVG-20010904/DTD/svg10.dtd">
<svg version="1.0" xmlns="http://www.w3.org/2000/svg"
 width="182.000000pt" height="182.000000pt" viewBox="0 0 182.000000 182.000000"
 preserveAspectRatio="xMidYMid meet">

<g transform="translate(0.000000,182.000000) scale(0.100000,-0.100000)"
fill="#000000" stroke="none">
<path d="M242 1552 l-25 -27 2 -625 c2 -387 6 -631 12 -642 6 -11 21 -23 35
-28 37 -14 1239 -13 1266 1 47 25 48 39 48 670 0 643 0 642 -56 668 -18 8
-202 11 -641 11 l-615 0 -26 -28z m996 -525 c8 -7 12 -46 12 -131 l0 -121 -85
-48 -85 -48 -87 49 -88 49 -3 120 -3 120 88 50 88 49 75 -39 c41 -22 81 -44
88 -50z m-388 -126 c0 -107 4 -151 13 -159 6 -5 58 -35 114 -66 l102 -55 108
60 c59 33 111 66 115 72 4 7 8 77 8 156 l0 144 26 -24 c14 -13 38 -46 52 -74
22 -43 26 -63 26 -145 0 -84 -3 -101 -26 -146 -31 -59 -104 -128 -154 -144
-26 -9 -36 -19 -42 -43 l-8 -32 -110 0 -109 0 -3 28 c-3 21 -14 33 -52 52 -60
30 -112 81 -142 138 -20 36 -23 57 -23 147 0 82 4 113 19 140 25 48 65 100 77
100 5 0 9 -62 9 -149z m330 -526 c0 -12 -18 -15 -100 -15 -82 0 -100 3 -100
15 0 12 18 15 100 15 82 0 100 -3 100 -15z m8 -92 c3 -23 2 -23 -108 -23 -92
0 -112 3 -117 16 -10 27 18 34 122 32 95 -3 100 -4 103 -25z"/>
<path d="M1025 1030 c-103 -51 -106 -199 -5 -250 50 -26 94 -25 136 1 100 61
96 197 -7 249 -48 25 -74 25 -124 0z m95 -48 c0 -14 -106 -113 -113 -106 -31
31 29 114 82 114 17 0 31 -4 31 -8z m50 -77 c0 -46 -37 -85 -80 -85 -16 0 -30
3 -30 7 0 7 101 113 107 113 2 0 3 -16 3 -35z"/>
</g>
</svg>
