<?xml version="1.0" standalone="no"?>
<!DOCTYPE svg PUBLIC "-//W3C//DTD SVG 20010904//EN"
 "http://www.w3.org/TR/2001/REC-SVG-20010904/DTD/svg10.dtd">
<svg version="1.0" xmlns="http://www.w3.org/2000/svg"
 width="182.000000pt" height="182.000000pt" viewBox="0 0 182.000000 182.000000"
 preserveAspectRatio="xMidYMid meet">

<g transform="translate(0.000000,182.000000) scale(0.100000,-0.100000)"
fill="#000000" stroke="none">
<path d="M543 1586 c-27 -23 -28 -29 -33 -138 l-5 -113 -75 -3 c-102 -3 -117
-8 -135 -42 -13 -25 -15 -93 -15 -445 l0 -415 -25 -12 c-19 -9 -25 -19 -25
-45 0 -45 23 -99 48 -112 14 -8 215 -11 639 -11 692 0 653 -4 673 72 14 49 7
84 -20 98 -19 10 -20 22 -20 425 0 423 -3 455 -39 471 -9 5 -54 10 -101 13
l-85 6 -5 113 c-5 109 -6 115 -33 138 l-28 24 -344 0 -344 0 -28 -24z m715
-38 c7 -7 12 -36 12 -65 l0 -53 -355 0 -355 0 0 53 c0 29 5 58 12 65 17 17
669 17 686 0z m22 -502 c0 -291 -2 -337 -16 -350 -13 -14 -60 -16 -354 -16
-325 0 -340 1 -350 19 -6 13 -10 142 -10 350 l0 331 365 0 365 0 0 -334z
m-780 224 c0 -17 -7 -20 -49 -20 -88 0 -81 33 -81 -371 l0 -359 543 2 542 3 3
357 2 358 -22 5 c-13 2 -43 6 -68 7 -32 2 -45 7 -45 18 0 23 147 27 169 5 14
-15 16 -63 16 -431 l0 -414 -198 0 -199 0 -23 -25 c-23 -25 -26 -25 -175 -25
-149 0 -152 0 -175 25 l-23 25 -199 0 -198 0 0 414 c0 364 2 417 16 430 11 12
36 16 90 16 67 0 74 -2 74 -20z m220 -910 c23 -18 42 -20 193 -20 154 0 171 2
194 20 24 19 41 20 234 20 l209 0 0 -33 c0 -18 -5 -38 -12 -45 -17 -17 -1229
-17 -1246 0 -7 7 -12 27 -12 45 l0 33 208 0 c190 0 209 -2 232 -20z"/>
<path d="M580 1500 c0 -16 7 -20 30 -20 23 0 30 4 30 20 0 16 -7 20 -30 20
-23 0 -30 -4 -30 -20z"/>
<path d="M690 1500 c0 -13 7 -20 20 -20 13 0 20 7 20 20 0 13 -7 20 -20 20
-13 0 -20 -7 -20 -20z"/>
<path d="M780 1500 c0 -16 7 -20 30 -20 23 0 30 4 30 20 0 16 -7 20 -30 20
-23 0 -30 -4 -30 -20z"/>
<path d="M910 1287 c0 -1 -16 -49 -35 -107 -36 -104 -38 -130 -12 -130 17 0
92 213 82 230 -5 9 -35 15 -35 7z"/>
<path d="M762 1232 c-23 -20 -42 -42 -42 -49 0 -12 78 -83 91 -83 21 0 17 36
-6 60 l-26 27 25 21 c29 22 32 34 13 50 -9 8 -23 0 -55 -26z"/>
<path d="M1006 1251 c-15 -16 -14 -19 16 -41 l31 -23 -26 -23 c-29 -25 -31
-32 -18 -53 7 -11 18 -6 55 24 25 20 46 43 46 50 0 7 -20 29 -44 48 -41 35
-44 35 -60 18z"/>
<path d="M660 955 c0 -18 5 -25 20 -25 15 0 20 7 20 25 0 18 -5 25 -20 25 -15
0 -20 -7 -20 -25z"/>
<path d="M760 955 l0 -25 230 0 230 0 0 25 0 25 -230 0 -230 0 0 -25z"/>
<path d="M617 873 c-4 -3 -7 -17 -7 -30 l0 -23 290 0 290 0 0 30 0 30 -283 0
c-156 0 -287 -3 -290 -7z"/>
<path d="M617 793 c-4 -3 -7 -12 -7 -20 0 -10 53 -13 281 -13 262 0 280 1 277
18 -3 16 -25 17 -274 20 -149 1 -273 -1 -277 -5z"/>
<path d="M890 460 c0 -15 7 -20 25 -20 18 0 25 5 25 20 0 15 -7 20 -25 20 -18
0 -25 -5 -25 -20z"/>
</g>
</svg>
