<?xml version="1.0" standalone="no"?>
<!DOCTYPE svg PUBLIC "-//W3C//DTD SVG 20010904//EN"
 "http://www.w3.org/TR/2001/REC-SVG-20010904/DTD/svg10.dtd">
<svg version="1.0" xmlns="http://www.w3.org/2000/svg"
 width="182.000000pt" height="182.000000pt" viewBox="0 0 182.000000 182.000000"
 preserveAspectRatio="xMidYMid meet">

<g transform="translate(0.000000,182.000000) scale(0.100000,-0.100000)"
fill="#000000" stroke="none">
<path d="M312 1530 c-18 -11 -41 -34 -52 -52 -19 -32 -20 -52 -20 -448 0 -383
1 -418 18 -449 33 -61 66 -71 239 -71 87 0 154 -4 158 -10 5 -8 -65 -152 -86
-174 -4 -5 -39 -9 -77 -10 -54 -1 -75 -5 -91 -20 -26 -24 -27 -60 -1 -86 19
-19 33 -20 503 -20 456 0 485 1 500 18 10 10 17 33 17 51 0 27 -5 34 -35 47
-19 7 -61 14 -94 14 l-60 0 -41 82 c-22 44 -40 87 -40 95 0 10 32 13 158 13
140 0 161 2 190 20 62 38 63 45 60 515 l-3 423 -25 27 c-51 56 -44 55 -637 55
-529 0 -549 -1 -581 -20z m226 -345 c5 -58 12 -71 50 -96 36 -24 42 -25 80
-14 38 12 42 11 55 -8 12 -18 11 -26 -9 -60 -21 -37 -21 -42 -7 -82 11 -34 22
-46 53 -60 33 -15 40 -23 40 -46 0 -22 -6 -29 -29 -34 -16 -3 -37 -15 -47 -26
-13 -14 -30 -19 -69 -19 l-53 0 5 63 c4 54 1 69 -24 117 -18 36 -43 65 -71 85
-41 28 -50 30 -133 30 l-89 0 0 88 0 89 29 -31 c42 -45 95 -44 141 4 43 44 74
44 78 0z m980 -538 c3 -30 -2 -43 -27 -67 l-29 -30 -557 0 c-620 0 -595 -3
-615 69 -5 20 -10 42 -10 48 0 10 131 13 603 16 331 1 609 2 617 2 10 0 16
-13 18 -38z m-381 -222 c24 -44 42 -86 40 -93 -2 -11 -57 -13 -276 -12 -151 0
-276 2 -278 4 -4 4 14 44 55 124 l33 62 192 -2 192 -3 42 -80z m243 -160 c31
-37 6 -40 -461 -43 -247 -2 -461 -1 -474 2 -24 6 -34 34 -18 49 3 4 217 7 473
7 409 0 469 -2 480 -15z"/>
<path d="M882 623 c5 -26 38 -29 38 -4 0 15 -6 21 -21 21 -14 0 -19 -5 -17
-17z"/>
</g>
</svg>
